<svg id="Layer_1" width="auto" height="auto" data-name="Layer 1" xmlns="http://www.w3.org/2000/svg" viewBox="0 0 950.01 950.01"><defs><style>.cls-1{font-size:144px;font-family:IvyPrestoDisplay-BoldItalic, IvyPresto Display;font-weight:700;font-style:italic;}</style></defs><text class="cls-1" transform="matrix(-0.13, -0.99, 0.99, -0.13, 133.14, 565.55)">C</text><text class="cls-1" transform="matrix(0.08, -1, 1, 0.08, 122.99, 479.91)">r</text><text class="cls-1" transform="translate(126.74 422.1) rotate(-75.95)">e</text><text class="cls-1" transform="translate(140.43 361.83) rotate(-64.47)">a</text><text class="cls-1" transform="translate(175.47 290.77) rotate(-54.01)">t</text><text class="cls-1" transform="matrix(0.69, -0.73, 0.73, 0.69, 204.98, 250.26)">i</text><text class="cls-1" transform="translate(232.15 219.54) rotate(-37.67)">v</text><text class="cls-1" transform="translate(287.18 178.06) rotate(-28.72)">i</text><text class="cls-1" transform="matrix(0.93, -0.36, 0.36, 0.93, 323.33, 157.69)">t</text><text class="cls-1" transform="matrix(0.98, -0.2, 0.2, 0.98, 368.89, 138.75)">y</text><text class="cls-1" transform="translate(437.34 126.17) rotate(-4.03)"> </text><text class="cls-1" transform="translate(460.08 123.75) rotate(1.82)">I</text><text class="cls-1" transform="translate(506.76 124.64) rotate(9.78)">s</text><text class="cls-1" transform="matrix(0.96, 0.28, -0.28, 0.96, 560.41, 134.64)"> </text><text class="cls-1" transform="translate(582.57 140.17) rotate(22.11)">I</text><text class="cls-1" transform="matrix(0.84, 0.54, -0.54, 0.84, 627.47, 156.14)">n</text><text class="cls-1" transform="translate(696.96 202.29) rotate(43.49)">t</text><text class="cls-1" transform="matrix(0.61, 0.79, -0.79, 0.61, 732.82, 235.06)">e</text><text class="cls-1" transform="translate(770.95 285.7) rotate(60.84)">l</text><text class="cls-1" transform="translate(790.64 320.66) rotate(67.42)">l</text><text class="cls-1" transform="translate(806.22 357.55) rotate(74.15)">i</text><text class="cls-1" transform="translate(818.55 395.21) rotate(83.09)">g</text><text class="cls-1" transform="matrix(-0.06, 1, -1, -0.06, 826.98, 462.95)">e</text><text class="cls-1" transform="matrix(-0.26, 0.96, -0.96, -0.26, 824.84, 525.2)">n</text><text class="cls-1" transform="matrix(-0.46, 0.89, -0.89, -0.46, 802.36, 605.15)">c</text><text class="cls-1" transform="translate(774.42 660.56) rotate(127.28)">e</text><text class="cls-1" transform="translate(734.84 710.75) rotate(134.29)"> </text><text class="cls-1" transform="matrix(-0.81, 0.58, -0.58, -0.81, 722.66, 728.89)">H</text><text class="cls-1" transform="matrix(-0.93, 0.36, -0.36, -0.93, 641.77, 786.33)">a</text><text class="cls-1" transform="translate(568.45 814.99) rotate(170.62)">v</text><text class="cls-1" transform="translate(500.34 825.24) rotate(179.07)">i</text><text class="cls-1" transform="matrix(-0.99, -0.17, 0.17, -0.99, 459.7, 828.04)">n</text><text class="cls-1" transform="translate(379.19 814.45) rotate(-158.13)">g</text><text class="cls-1" transform="translate(313.35 786.46) rotate(-150.45)"> </text><text class="cls-1" transform="translate(293.07 777.44) rotate(-142.41)">F</text><text class="cls-1" transform="translate(235.71 734.98) rotate(-130.25)">u</text><text class="cls-1" transform="translate(181.83 672.34) rotate(-116.84)">n</text></svg>